<svg width="24" height="24" viewBox="0 0 24 24" fill="none" xmlns="http://www.w3.org/2000/svg">
<path d="M3.5 19V19.5H4H20.002H20.5021L20.502 18.9999L20.5 4.99993L20.4999 4.5H20H4H3.5V5V19ZM4 3.5H20C20.8269 3.5 21.5 4.17314 21.5 5V19C21.5 19.8269 20.8269 20.5 20 20.5H4C3.17314 20.5 2.5 19.8269 2.5 19V5C2.5 4.17314 3.17314 3.5 4 3.5Z" fill="black" stroke="#020402"/>
<path d="M6.5 7.5H17.5V8.5H6.5V7.5ZM6.5 11.5H17.5V12.5H6.5V11.5ZM6.5 15.5H11.5V16.5H6.5V15.5Z" fill="black" stroke="#020402"/>
</svg>
