<svg width="24" height="24" viewBox="0 0 24 24" fill="none" xmlns="http://www.w3.org/2000/svg">
<path d="M13.9488 5.74799C13.9487 5.74852 13.9487 5.74904 13.9486 5.74957L12.7991 13.8058C12.7991 13.806 12.7991 13.8061 12.7991 13.8063L12.799 13.8066L12.304 13.736L13.9488 5.74799ZM13.9488 5.74799C13.9902 5.46837 13.9709 5.18312 13.8922 4.91161M13.9488 5.74799L13.8922 4.91161M13.8922 4.91161C13.8135 4.63958 13.6769 4.38774 13.492 4.17326M13.8922 4.91161L13.492 4.17326M13.492 4.17326C13.3071 3.95877 13.0781 3.78669 12.8206 3.66872M13.492 4.17326L12.8206 3.66872M12.8206 3.66872C12.5631 3.55076 12.2832 3.4897 12 3.4897M12.8206 3.66872L12 3.4897M12 3.4897C11.7168 3.4897 11.4369 3.55076 11.1795 3.66872M12 3.4897L11.1795 3.66872M11.1795 3.66872C10.922 3.78669 10.693 3.95877 10.5081 4.17326M11.1795 3.66872L10.5081 4.17326M10.5081 4.17326C10.3231 4.38774 10.1866 4.63958 10.1078 4.91161M10.5081 4.17326L10.1078 4.91161M10.1078 4.91161C10.0292 5.18314 10.0099 5.46841 10.0512 5.74806M10.1078 4.91161L10.0512 5.74806M10.0512 5.74806C10.0513 5.74856 10.0514 5.74906 10.0515 5.74957M10.0512 5.74806L10.0515 5.74957M10.0515 5.74957L11.2029 13.8058C11.203 13.8061 11.203 13.8063 11.203 13.8065L11.2031 13.8067L11.698 13.736L10.0515 5.74957ZM9.061 5.88925L9.06084 5.88816C8.99963 5.46649 9.02985 5.03659 9.14948 4.62764C9.2691 4.21869 9.47531 3.84026 9.75412 3.51806C10.0329 3.19585 10.3778 2.93741 10.7653 2.76027C11.1528 2.58314 11.5739 2.49146 12 2.49146C12.4261 2.49146 12.8472 2.58314 13.2347 2.76027C13.6223 2.93741 13.9671 3.19585 14.2459 3.51806C14.5247 3.84026 14.731 4.21869 14.8506 4.62764C14.9702 5.03659 15.0004 5.46649 14.9392 5.88816L14.9391 5.88925L13.7872 13.948C13.7872 13.9482 13.7872 13.9484 13.7871 13.9486C13.7246 14.3778 13.5097 14.7702 13.1816 15.054C12.8534 15.3379 12.434 15.4942 12 15.4942C11.5661 15.4942 11.1466 15.3379 10.8184 15.054C10.4904 14.7702 10.2755 14.3779 10.2129 13.9487C10.2129 13.9485 10.2129 13.9483 10.2128 13.948L9.061 5.88925ZM13.0607 21.0607C12.7794 21.342 12.3979 21.5 12 21.5C11.6022 21.5 11.2207 21.342 10.9394 21.0607C10.6581 20.7794 10.5 20.3978 10.5 20C10.5 19.6022 10.6581 19.2206 10.9394 18.9393C11.2207 18.658 11.6022 18.5 12 18.5C12.3979 18.5 12.7794 18.658 13.0607 18.9393C13.342 19.2206 13.5 19.6022 13.5 20C13.5 20.3978 13.342 20.7794 13.0607 21.0607Z" fill="black" stroke="#020402"/>
</svg>
