<svg width="24" height="24" viewBox="0 0 24 24" fill="none" xmlns="http://www.w3.org/2000/svg">
<mask id="path-1-inside-1_329_87" fill="white">
<path fill-rule="evenodd" clip-rule="evenodd" d="M12.5931 23.258L12.582 23.26L12.511 23.295L12.491 23.299L12.477 23.295L12.406 23.26C12.3954 23.2567 12.3874 23.2583 12.382 23.265L12.378 23.275L12.361 23.703L12.366 23.723L12.376 23.736L12.48 23.81L12.495 23.814L12.507 23.81L12.611 23.736L12.623 23.72L12.627 23.703L12.61 23.276C12.6074 23.2653 12.6017 23.2593 12.5931 23.258ZM12.858 23.145L12.845 23.147L12.66 23.24L12.65 23.25L12.647 23.261L12.665 23.691L12.67 23.703L12.6781 23.71L12.879 23.803C12.8917 23.8063 12.9014 23.8037 12.908 23.795L12.912 23.781L12.878 23.167C12.8747 23.155 12.868 23.1477 12.858 23.145ZM12.143 23.147C12.1386 23.1443 12.1334 23.1435 12.1283 23.1446C12.1233 23.1457 12.1189 23.1487 12.116 23.153L12.11 23.167L12.076 23.781C12.0767 23.793 12.0824 23.801 12.0931 23.805L12.108 23.803L12.309 23.71L12.319 23.702L12.323 23.691L12.34 23.261L12.337 23.249L12.327 23.239L12.143 23.147Z"/>
</mask>
<path d="M12.5931 23.258L12.7451 22.2696L12.5792 22.2441L12.4141 22.2741L12.5931 23.258ZM12.582 23.26L12.4031 22.2761L12.2654 22.3012L12.1399 22.3631L12.582 23.26ZM12.511 23.295L12.7072 24.2756L12.8357 24.2499L12.9532 24.1919L12.511 23.295ZM12.491 23.299L12.2163 24.2605L12.4494 24.3271L12.6872 24.2796L12.491 23.299ZM12.477 23.295L12.0349 24.1919L12.1157 24.2318L12.2023 24.2565L12.477 23.295ZM12.406 23.26L12.8482 22.3631L12.7785 22.3287L12.7043 22.3055L12.406 23.26ZM12.382 23.265L11.6012 22.6403L11.5086 22.756L11.4536 22.8936L12.382 23.265ZM12.378 23.275L11.4496 22.9036L11.3857 23.0634L11.3788 23.2353L12.378 23.275ZM12.361 23.703L11.3618 23.6633L11.3561 23.8065L11.3909 23.9455L12.361 23.703ZM12.366 23.723L11.3959 23.9655L11.4464 24.1676L11.5734 24.3327L12.366 23.723ZM12.376 23.736L11.5834 24.3457L11.6745 24.4642L11.7963 24.5508L12.376 23.736ZM12.48 23.81L11.9003 24.6248L12.0477 24.7296L12.2224 24.7762L12.48 23.81ZM12.495 23.814L12.2374 24.7802L12.527 24.8574L12.8113 24.7627L12.495 23.814ZM12.507 23.81L12.8233 24.7587L12.965 24.7114L13.0868 24.6248L12.507 23.81ZM12.611 23.736L13.1908 24.5508L13.3177 24.4605L13.4111 24.336L12.611 23.736ZM12.623 23.72L13.4231 24.32L13.5486 24.1526L13.5965 23.949L12.623 23.72ZM12.627 23.703L13.6005 23.932L13.6317 23.7994L13.6263 23.6632L12.627 23.703ZM12.61 23.276L13.6093 23.2362L13.6052 23.1333L13.5802 23.0335L12.61 23.276ZM12.858 23.145L13.1157 22.1788L12.9132 22.1248L12.7061 22.1566L12.858 23.145ZM12.845 23.147L12.6931 22.1586L12.537 22.1826L12.3959 22.2535L12.845 23.147ZM12.66 23.24L12.2109 22.3465L12.0669 22.4189L11.9529 22.5329L12.66 23.24ZM12.65 23.25L11.9429 22.5429L11.7551 22.7307L11.6853 22.9869L12.65 23.25ZM12.647 23.261L11.6823 22.9979L11.6414 23.1477L11.6479 23.3028L12.647 23.261ZM12.665 23.691L11.6659 23.7328L11.6734 23.911L11.742 24.0756L12.665 23.691ZM12.67 23.703L11.747 24.0876L11.8365 24.3024L12.0116 24.4556L12.67 23.703ZM12.6781 23.71L12.0196 24.4626L12.1277 24.5572L12.2581 24.6176L12.6781 23.71ZM12.879 23.803L12.4591 24.7106L12.5392 24.7476L12.6246 24.7701L12.879 23.803ZM12.908 23.795L13.7007 24.4047L13.8171 24.2533L13.8696 24.0697L12.908 23.795ZM12.912 23.781L13.8736 24.0557L13.9198 23.8938L13.9105 23.7257L12.912 23.781ZM12.878 23.167L13.8765 23.1117L13.8705 23.0036L13.8416 22.8994L12.878 23.167ZM12.143 23.147L11.6248 24.0022L11.6595 24.0233L11.6958 24.0414L12.143 23.147ZM12.116 23.153L11.2843 22.5978L11.2332 22.6744L11.1969 22.7591L12.116 23.153ZM12.11 23.167L11.1909 22.7731L11.1213 22.9354L11.1116 23.1117L12.11 23.167ZM12.076 23.781L11.0776 23.7257L11.0745 23.7811L11.0776 23.8365L12.076 23.781ZM12.0931 23.805L11.7419 24.7413L11.9767 24.8294L12.2253 24.7962L12.0931 23.805ZM12.108 23.803L12.2403 24.7942L12.3905 24.7742L12.528 24.7106L12.108 23.803ZM12.309 23.71L12.729 24.6176L12.839 24.5666L12.9337 24.4909L12.309 23.71ZM12.319 23.702L12.9437 24.4829L13.1629 24.3075L13.2588 24.0437L12.319 23.702ZM12.323 23.691L13.2628 24.0327L13.3161 23.8862L13.3223 23.7305L12.323 23.691ZM12.34 23.261L13.3393 23.3005L13.3449 23.1574L13.3102 23.0184L12.34 23.261ZM12.337 23.249L13.3072 23.0064L13.24 22.7377L13.0442 22.5419L12.337 23.249ZM12.327 23.239L13.0342 22.5319L12.9194 22.4171L12.7743 22.3446L12.327 23.239ZM12.4141 22.2741L12.4031 22.2761L12.761 24.2439L12.772 24.2419L12.4141 22.2741ZM12.1399 22.3631L12.0689 22.3981L12.9532 24.1919L13.0242 24.1569L12.1399 22.3631ZM12.3149 22.3144L12.2949 22.3184L12.6872 24.2796L12.7072 24.2756L12.3149 22.3144ZM12.7658 22.3375L12.7518 22.3335L12.2023 24.2565L12.2163 24.2605L12.7658 22.3375ZM12.9192 22.3981L12.8482 22.3631L11.9639 24.1569L12.0349 24.1919L12.9192 22.3981ZM12.7043 22.3055C12.5935 22.2709 12.409 22.2338 12.1881 22.2798C11.9457 22.3303 11.7421 22.4642 11.6012 22.6403L13.1629 23.8897C13.0273 24.0592 12.8304 24.1889 12.596 24.2377C12.3831 24.2821 12.2079 24.2458 12.1078 24.2145L12.7043 22.3055ZM11.4536 22.8936L11.4496 22.9036L13.3065 23.6464L13.3105 23.6364L11.4536 22.8936ZM11.3788 23.2353L11.3618 23.6633L13.3603 23.7427L13.3773 23.3147L11.3788 23.2353ZM11.3909 23.9455L11.3959 23.9655L13.3362 23.4805L13.3312 23.4605L11.3909 23.9455ZM11.5734 24.3327L11.5834 24.3457L13.1687 23.1263L13.1587 23.1133L11.5734 24.3327ZM11.7963 24.5508L11.9003 24.6248L13.0598 22.9952L12.9558 22.9212L11.7963 24.5508ZM12.2224 24.7762L12.2374 24.7802L12.7527 22.8478L12.7377 22.8438L12.2224 24.7762ZM12.8113 24.7627L12.8233 24.7587L12.1908 22.8613L12.1788 22.8653L12.8113 24.7627ZM13.0868 24.6248L13.1908 24.5508L12.0313 22.9212L11.9273 22.9952L13.0868 24.6248ZM13.4111 24.336L13.4231 24.32L11.823 23.12L11.811 23.136L13.4111 24.336ZM13.5965 23.949L13.6005 23.932L11.6536 23.474L11.6496 23.491L13.5965 23.949ZM13.6263 23.6632L13.6093 23.2362L11.6108 23.3158L11.6278 23.7428L13.6263 23.6632ZM13.5802 23.0335C13.5506 22.9151 13.4842 22.7393 13.3308 22.5769C13.1653 22.4016 12.9546 22.3019 12.7451 22.2696L12.441 24.2464C12.2402 24.2155 12.0366 24.1194 11.8768 23.9501C11.7291 23.7937 11.6668 23.6263 11.6399 23.5185L13.5802 23.0335ZM12.7061 22.1566L12.6931 22.1586L12.997 24.1354L13.01 24.1334L12.7061 22.1566ZM12.3959 22.2535L12.2109 22.3465L13.1092 24.1335L13.2942 24.0405L12.3959 22.2535ZM11.9529 22.5329L11.9429 22.5429L13.3572 23.9571L13.3672 23.9471L11.9529 22.5329ZM11.6853 22.9869L11.6823 22.9979L13.6118 23.5241L13.6148 23.5131L11.6853 22.9869ZM11.6479 23.3028L11.6659 23.7328L13.6642 23.6492L13.6462 23.2192L11.6479 23.3028ZM11.742 24.0756L11.747 24.0876L13.5931 23.3184L13.5881 23.3064L11.742 24.0756ZM12.0116 24.4556L12.0196 24.4626L13.3365 22.9574L13.3285 22.9504L12.0116 24.4556ZM12.2581 24.6176L12.4591 24.7106L13.299 22.8954L13.098 22.8024L12.2581 24.6176ZM12.6246 24.7701C12.7507 24.8033 12.9423 24.828 13.1617 24.7675C13.3951 24.7031 13.5776 24.5647 13.7007 24.4047L12.1154 23.1853C12.2319 23.0339 12.4062 22.9012 12.6299 22.8395C12.8397 22.7816 13.0201 22.8061 13.1335 22.8359L12.6246 24.7701ZM13.8696 24.0697L13.8736 24.0557L11.9505 23.5063L11.9465 23.5203L13.8696 24.0697ZM13.9105 23.7257L13.8765 23.1117L11.8796 23.2223L11.9136 23.8363L13.9105 23.7257ZM13.8416 22.8994C13.766 22.6274 13.5428 22.2926 13.1157 22.1788L12.6004 24.1112C12.4284 24.0654 12.2624 23.9702 12.1306 23.8252C12.0053 23.6873 11.9442 23.5416 11.9145 23.4346L13.8416 22.8994ZM12.6613 22.2918C12.4365 22.1555 12.1678 22.1114 11.9114 22.1684L12.3453 24.1208C12.0989 24.1755 11.8408 24.1331 11.6248 24.0022L12.6613 22.2918ZM11.9114 22.1684C11.655 22.2254 11.4303 22.3792 11.2843 22.5978L12.9478 23.7082C12.8075 23.9183 12.5917 24.066 12.3453 24.1208L11.9114 22.1684ZM11.1969 22.7591L11.1909 22.7731L13.0292 23.5609L13.0352 23.5469L11.1969 22.7591ZM11.1116 23.1117L11.0776 23.7257L13.0745 23.8363L13.1085 23.2223L11.1116 23.1117ZM11.0776 23.8365C11.086 23.9878 11.1309 24.1851 11.2648 24.374C11.4011 24.5665 11.5804 24.6808 11.7419 24.7413L12.4442 22.8687C12.595 22.9252 12.7662 23.0335 12.8968 23.218C13.025 23.3989 13.0668 23.5862 13.0745 23.7255L11.0776 23.8365ZM12.2253 24.7962L12.2403 24.7942L11.9758 22.8118L11.9608 22.8138L12.2253 24.7962ZM12.528 24.7106L12.729 24.6176L11.8891 22.8024L11.6881 22.8954L12.528 24.7106ZM12.9337 24.4909L12.9437 24.4829L11.6944 22.9211L11.6844 22.9291L12.9337 24.4909ZM13.2588 24.0437L13.2628 24.0327L11.3833 23.3493L11.3793 23.3603L13.2588 24.0437ZM13.3223 23.7305L13.3393 23.3005L11.3408 23.2215L11.3238 23.6515L13.3223 23.7305ZM13.3102 23.0184L13.3072 23.0064L11.3669 23.4916L11.3699 23.5036L13.3102 23.0184ZM13.0442 22.5419L13.0342 22.5319L11.6199 23.9461L11.6299 23.9561L13.0442 22.5419ZM12.7743 22.3446L12.5903 22.2526L11.6958 24.0414L11.8798 24.1334L12.7743 22.3446Z" fill="#020402" mask="url(#path-1-inside-1_329_87)"/>
<path d="M21.7676 9.43447L21.7692 9.43287C21.859 9.34224 21.98 9.28935 22.1075 9.28503C22.235 9.2807 22.3593 9.32527 22.455 9.4096C22.5507 9.49394 22.6106 9.61166 22.6223 9.73868C22.6337 9.86157 22.5992 9.98417 22.5258 10.083L22.4636 10.1533L19.6465 12.9704C19.6465 12.9704 19.6465 12.9704 19.6464 12.9704C19.5604 13.0565 19.4458 13.1082 19.3243 13.1159C19.2072 13.1232 19.0913 13.0892 18.997 13.0199L18.9286 12.9595L17.5256 11.5564L17.5239 11.5548C17.4332 11.465 17.3804 11.344 17.376 11.2165C17.3717 11.089 17.4163 10.9647 17.5006 10.869C17.5849 10.7733 17.7027 10.7134 17.8297 10.7017C17.9526 10.6903 18.0753 10.7248 18.1741 10.7983L18.2433 10.8594L18.9392 11.5563L19.2928 11.9104L19.6466 11.5565L21.7676 9.43447ZM16 14.5C17.1935 14.5 18.3381 14.9741 19.182 15.818C20.0259 16.6619 20.5 17.8065 20.5 19V21C20.5 21.1326 20.4473 21.2598 20.3536 21.3536C20.2598 21.4473 20.1326 21.5 20 21.5C19.8674 21.5 19.7402 21.4473 19.6464 21.3536C19.5527 21.2598 19.5 21.1326 19.5 21V19C19.5 18.0717 19.1313 17.1815 18.4749 16.5251C17.8185 15.8687 16.9283 15.5 16 15.5H8C7.07174 15.5 6.1815 15.8687 5.52513 16.5251C4.86875 17.1815 4.5 18.0717 4.5 19V21C4.5 21.1326 4.44732 21.2598 4.35355 21.3536C4.25979 21.4473 4.13261 21.5 4 21.5C3.86739 21.5 3.74021 21.4473 3.64645 21.3536C3.55268 21.2598 3.5 21.1326 3.5 21V19C3.5 17.8065 3.97411 16.6619 4.81802 15.818C5.66193 14.9741 6.80653 14.5 8 14.5H16ZM12 2.5C13.1935 2.5 14.3381 2.97411 15.182 3.81802C16.0259 4.66193 16.5 5.80653 16.5 7C16.5 8.19347 16.0259 9.33807 15.182 10.182C14.3381 11.0259 13.1935 11.5 12 11.5C10.8065 11.5 9.66193 11.0259 8.81802 10.182C7.97411 9.33807 7.5 8.19347 7.5 7C7.5 5.80653 7.97411 4.66193 8.81802 3.81802C9.66193 2.97411 10.8065 2.5 12 2.5ZM12 3.5C11.5404 3.5 11.0852 3.59053 10.6606 3.76642C10.236 3.94231 9.85013 4.20012 9.52513 4.52513C9.20012 4.85013 8.94231 5.23597 8.76642 5.66061C8.59053 6.08525 8.5 6.54037 8.5 7C8.5 7.45963 8.59053 7.91475 8.76642 8.33939C8.94231 8.76403 9.20012 9.14987 9.52513 9.47487C9.85013 9.79988 10.236 10.0577 10.6606 10.2336C11.0852 10.4095 11.5404 10.5 12 10.5C12.9283 10.5 13.8185 10.1313 14.4749 9.47487C15.1313 8.8185 15.5 7.92826 15.5 7C15.5 6.07174 15.1313 5.1815 14.4749 4.52513C13.8185 3.86875 12.9283 3.5 12 3.5Z" fill="black" stroke="#020402"/>
</svg>
