<svg width="24" height="24" viewBox="0 0 24 24" fill="none" xmlns="http://www.w3.org/2000/svg">
<path d="M10.667 11.5H10.9347L11.0831 11.2772L12.1189 9.7225C12.1189 9.72247 12.119 9.72243 12.119 9.7224C12.1647 9.65399 12.2265 9.5979 12.299 9.5591C12.3716 9.52029 12.4526 9.49999 12.5349 9.5H12.535H15.465H15.4651C15.5474 9.49999 15.6284 9.52029 15.701 9.5591C15.7735 9.5979 15.8353 9.65399 15.881 9.7224C15.881 9.72243 15.8811 9.72246 15.8811 9.7225L16.9169 11.2772L17.0653 11.5H17.333H20C20.1326 11.5 20.2598 11.5527 20.3536 11.6464C20.4473 11.7402 20.5 11.8674 20.5 12V20C20.5 20.1326 20.4473 20.2598 20.3536 20.3536C20.2598 20.4473 20.1326 20.5 20 20.5H8C7.86739 20.5 7.74021 20.4473 7.64645 20.3536C7.55268 20.2598 7.5 20.1326 7.5 20V12C7.5 11.8674 7.55268 11.7402 7.64645 11.6464C7.74022 11.5527 7.86739 11.5 8 11.5H10.667ZM8.5 19V19.5H9H19H19.5V19V13V12.5H19H16.5306L15.3461 10.7227L15.1976 10.5H14.93H13.07H12.8024L12.6539 10.7227L11.4694 12.5H9H8.5V13V19ZM3.5 3.5H4.5V4.5H3.5V3.5ZM7.5 3.5H8.5V4.5H7.5V3.5ZM11.5 3.5H12.5V4.5H11.5V3.5ZM15.5 3.5H16.5V4.5H15.5V3.5ZM19.5 3.5H20.5V4.5H19.5V3.5ZM19.5 7.5H20.5V8.5H19.5V7.5ZM3.5 19.5H4.5V20.5H3.5V19.5ZM3.5 15.5H4.5V16.5H3.5V15.5ZM3.5 11.5H4.5V12.5H3.5V11.5ZM3.5 7.5H4.5V8.5H3.5V7.5ZM14 17.5C13.6022 17.5 13.2206 17.342 12.9393 17.0607C12.658 16.7794 12.5 16.3978 12.5 16C12.5 15.6022 12.658 15.2206 12.9393 14.9393C13.2206 14.658 13.6022 14.5 14 14.5C14.3978 14.5 14.7794 14.658 15.0607 14.9393C15.342 15.2206 15.5 15.6022 15.5 16C15.5 16.3978 15.342 16.7794 15.0607 17.0607C14.7794 17.342 14.3978 17.5 14 17.5Z" fill="black" stroke="#020402"/>
</svg>
