<svg width="36" height="36" viewBox="0 0 36 36" fill="none" xmlns="http://www.w3.org/2000/svg">
<path d="M17.9971 3C13.7221 3 10.9516 6.0285 7.67407 7.1325C6.34207 7.5825 5.67457 7.806 5.40607 8.1225C5.13607 8.4375 5.05657 8.901 4.89907 9.825C3.20857 19.719 6.90307 28.866 15.7126 32.427C16.6591 32.8095 17.1331 33 18.0016 33C18.8701 33 19.3456 32.808 20.2921 32.4255C29.1016 28.866 32.7916 19.719 31.1011 9.825C30.9421 8.901 30.8641 8.4375 30.5941 8.121C30.3241 7.8045 29.6581 7.581 28.3261 7.1325C25.0471 6.0285 22.2721 3 17.9971 3Z" stroke="#020402" stroke-width="2" stroke-linecap="round" stroke-linejoin="round"/>
<path d="M18 24C18.21 24 18.405 23.904 18.7935 23.715L21.9225 22.1805C23.307 21.501 24 21.162 24 20.625V13.875M18 24C17.79 24 17.595 23.904 17.2065 23.715L14.0775 22.1805C12.693 21.501 12 21.162 12 20.625V13.875M18 24V17.25M24 13.875C24 13.338 23.307 12.999 21.9225 12.3195L18.795 10.7865C18.4035 10.596 18.2085 10.5 18 10.5C17.79 10.5 17.595 10.596 17.2065 10.785L14.0775 12.321C12.693 12.999 12 13.338 12 13.875M24 13.875C24 14.412 23.307 14.751 21.9225 15.4305L18.7935 16.9635C18.4035 17.154 18.2085 17.25 18 17.25M12 13.875C12 14.412 12.693 14.751 14.0775 15.4305L17.2065 16.9635C17.5965 17.154 17.7915 17.25 18 17.25" stroke="#020402" stroke-width="2" stroke-linecap="round" stroke-linejoin="round"/>
</svg>
