<svg width="16" height="16" viewBox="0 0 16 16" fill="none" xmlns="http://www.w3.org/2000/svg">
<path d="M3.33464 12.6668H4.06664L11.1986 5.53476L10.4666 4.80276L3.33464 11.9348V12.6668ZM2.66797 13.3334V11.6534L11.4546 2.85876C11.5235 2.79787 11.5991 2.75076 11.6813 2.71742C11.7635 2.68409 11.8495 2.6672 11.9393 2.66676C12.0291 2.66631 12.1157 2.68054 12.1993 2.70942C12.2837 2.73742 12.3615 2.78809 12.4326 2.86142L13.144 3.57743C13.2173 3.64809 13.2675 3.72587 13.2946 3.81076C13.3213 3.8952 13.3346 3.97965 13.3346 4.06409C13.3346 4.15476 13.3195 4.24143 13.2893 4.32409C13.2586 4.40631 13.2102 4.48165 13.144 4.55009L4.3473 13.3334H2.66797ZM10.8266 5.17476L10.4666 4.80276L11.1986 5.53476L10.8266 5.17476Z" fill="#BBBBBB"/>
</svg>
